<?xml version="1.0" encoding="utf-8"?>
<svg width="64" height="64" viewBox="0 0 64 64" fill="none" xmlns="http://www.w3.org/2000/svg">
  <path d="M 54.78 22.36 C 51.22 18.82 46.599 16.542 41.623 15.873 C 36.646 15.205 31.588 16.184 27.22 18.66 L 22.76 14.2 C 22.478 13.922 22.097 13.765 21.7 13.765 C 21.303 13.765 20.923 13.922 20.64 14.2 L 18.48 16.36 L 13.6 11.47 C 13.312 11.22 12.939 11.089 12.557 11.102 C 12.176 11.116 11.814 11.274 11.544 11.544 C 11.274 11.814 11.116 12.176 11.102 12.557 C 11.089 12.939 11.22 13.311 11.47 13.6 L 16.36 18.48 L 14.2 20.64 C 13.919 20.921 13.761 21.303 13.761 21.7 C 13.761 22.098 13.919 22.479 14.2 22.76 L 18.66 27.22 C 12.33 37.8 16.381 52.6 27.25 58.5 C 33.195 61.727 38.484 61.613 38.54 61.5 C 58.167 60.632 69.16 36.66 54.78 22.36 Z M 17.38 21.7 L 21.7 17.39 L 24.7 20.39 C 23.066 21.614 21.614 23.066 20.39 24.7 L 17.38 21.7 Z M 52.66 52.7 C 45.24 60.43 31.9 60.43 24.48 52.7 C 11.98 40.18 20.88 18.7 38.57 18.7 C 56.26 18.7 65.15 40.23 52.66 52.66 L 52.66 52.7 Z" fill="black"/>
  <path d="M28.0601 28.06C27.7951 28.3443 27.6508 28.7204 27.6577 29.109C27.6646 29.4976 27.822 29.8684 28.0968 30.1432C28.3716 30.4181 28.7424 30.5755 29.131 30.5823C29.5196 30.5892 29.8957 30.445 30.1801 30.18C32.4058 27.956 35.4236 26.7067 38.5701 26.7067C41.7165 26.7067 44.7343 27.956 46.9601 30.18C47.2444 30.445 47.6205 30.5892 48.0091 30.5823C48.3977 30.5755 48.7685 30.4181 49.0433 30.1432C49.3181 29.8684 49.4755 29.4976 49.4824 29.109C49.4893 28.7204 49.345 28.3443 49.0801 28.06C46.2918 25.2742 42.5115 23.7094 38.5701 23.7094C34.6286 23.7094 30.8483 25.2742 28.0601 28.06V28.06Z" fill="black"/>
  <path d="M7.56006 5.44006C7.27571 5.1751 6.89962 5.03085 6.51101 5.03771C6.12241 5.04457 5.75164 5.20199 5.47682 5.47682C5.20199 5.75164 5.04457 6.12241 5.03771 6.51101C5.03085 6.89962 5.1751 7.27571 5.44006 7.56006L6.85006 9.00006C7.13517 9.28517 7.52186 9.44534 7.92506 9.44534C8.32826 9.44534 8.71495 9.28517 9.00006 9.00006C9.28517 8.71495 9.44534 8.32826 9.44534 7.92506C9.44534 7.52186 9.28517 7.13517 9.00006 6.85006L7.56006 5.44006Z" fill="black"/>
  <path d="M12.54 7.49C12.9291 7.47963 13.299 7.31839 13.5714 7.04035C13.8439 6.76232 13.9975 6.38926 14 6V4C14 3.60218 13.842 3.22064 13.5607 2.93934C13.2794 2.65804 12.8978 2.5 12.5 2.5C12.1022 2.5 11.7206 2.65804 11.4393 2.93934C11.158 3.22064 11 3.60218 11 4V6C11.0013 6.19955 11.0423 6.39685 11.1208 6.58033C11.1993 6.76381 11.3135 6.92979 11.457 7.06855C11.6004 7.20731 11.77 7.31606 11.956 7.38843C12.142 7.46079 12.3405 7.49533 12.54 7.49V7.49Z" fill="black"/>
  <path d="M17.16 9.41006C18.03 9.52006 19.05 8.05006 19.63 7.56006C19.8949 7.27571 20.0392 6.89962 20.0323 6.51101C20.0254 6.12241 19.868 5.75164 19.5932 5.47682C19.3184 5.20199 18.9476 5.04457 18.559 5.03771C18.1704 5.03085 17.7943 5.1751 17.51 5.44006L16.1 6.85006C15.8952 7.06161 15.7567 7.32842 15.7016 7.61765C15.6465 7.90688 15.6772 8.20591 15.7898 8.47794C15.9024 8.74997 16.0921 8.98314 16.3356 9.14875C16.579 9.31436 16.8656 9.40519 17.16 9.41006V9.41006Z" fill="black"/>
  <path d="M6.85006 16.1L5.44006 17.51C5.1751 17.7943 5.03085 18.1704 5.03771 18.559C5.04457 18.9476 5.20199 19.3184 5.47682 19.5932C5.75164 19.868 6.12241 20.0255 6.51101 20.0323C6.89962 20.0392 7.27571 19.8949 7.56006 19.63L9.00006 18.22C9.28119 17.9349 9.43755 17.5498 9.43473 17.1494C9.43192 16.749 9.27017 16.3661 8.98506 16.085C8.69995 15.8038 8.31484 15.6475 7.91445 15.6503C7.51406 15.6531 7.13119 15.8149 6.85006 16.1V16.1Z" fill="black"/>
  <path d="M7.5 12.53C7.50264 12.3309 7.46587 12.1332 7.39179 11.9483C7.31772 11.7635 7.2078 11.5951 7.06838 11.4529C6.92896 11.3107 6.76279 11.1974 6.57943 11.1197C6.39607 11.042 6.19915 11.0013 6 11H4C3.60218 11 3.22064 11.158 2.93934 11.4393C2.65804 11.7206 2.5 12.1022 2.5 12.5C2.5 12.8978 2.65804 13.2794 2.93934 13.5607C3.22064 13.842 3.60218 14 4 14H6C6.39268 14.0001 6.76973 13.8462 7.05019 13.5713C7.33065 13.2965 7.49215 12.9226 7.5 12.53V12.53Z" fill="black"/>
  <path style="fill: rgb(216, 216, 216); stroke: rgb(0, 0, 0);" d="M 27.355 61.346"/>
</svg>